<svg xmlns="http://www.w3.org/2000/svg" viewBox="0 0 1200 860" width="100%" height="100%">
  <defs>
    <!-- Background Canvas Gradients -->
    <linearGradient id="bgGrad" x1="0%" y1="0%" x2="100%" y2="100%">
      <stop offset="0%" stop-color="#050811" />
      <stop offset="50%" stop-color="#0a101d" />
      <stop offset="100%" stop-color="#050811" />
    </linearGradient>

    <!-- Glassmorphic Card Backgrounds -->
    <linearGradient id="cardDark" x1="0%" y1="0%" x2="0%" y2="100%">
      <stop offset="0%" stop-color="#111c30" stop-opacity="0.85" />
      <stop offset="100%" stop-color="#0a1220" stop-opacity="0.95" />
    </linearGradient>

    <linearGradient id="cloudCard" x1="0%" y1="0%" x2="100%" y2="100%">
      <stop offset="0%" stop-color="#08203e" stop-opacity="0.7" />
      <stop offset="100%" stop-color="#051329" stop-opacity="0.9" />
    </linearGradient>

    <linearGradient id="agent1Card" x1="0%" y1="0%" x2="0%" y2="100%">
      <stop offset="0%" stop-color="#241402" stop-opacity="0.85" />
      <stop offset="100%" stop-color="#100801" stop-opacity="0.95" />
    </linearGradient>

    <linearGradient id="agent2Card" x1="0%" y1="0%" x2="0%" y2="100%">
      <stop offset="0%" stop-color="#022119" stop-opacity="0.85" />
      <stop offset="100%" stop-color="#010f0b" stop-opacity="0.95" />
    </linearGradient>

    <linearGradient id="agent3Card" x1="0%" y1="0%" x2="0%" y2="100%">
      <stop offset="0%" stop-color="#260610" stop-opacity="0.85" />
      <stop offset="100%" stop-color="#120106" stop-opacity="0.95" />
    </linearGradient>

    <linearGradient id="synthesisGrad" x1="0%" y1="0%" x2="100%" y2="0%">
      <stop offset="0%" stop-color="#3b0764" />
      <stop offset="50%" stop-color="#6b21a8" />
      <stop offset="100%" stop-color="#3b0764" />
    </linearGradient>

    <!-- Drop Shadows -->
    <filter id="cardShadow" x="-10%" y="-10%" width="120%" height="120%">
      <feDropShadow dx="0" dy="10" stdDeviation="12" flood-color="#000000" flood-opacity="0.5" />
    </filter>

    <!-- Markers -->
    <marker id="arrCyan" viewBox="0 0 10 10" refX="6" refY="5" markerWidth="6" markerHeight="6" orient="auto-start-reverse">
      <path d="M 0 1.5 L 8 5 L 0 8.5 z" fill="#38bdf8" />
    </marker>
    <marker id="arrAmber" viewBox="0 0 10 10" refX="6" refY="5" markerWidth="6" markerHeight="6" orient="auto-start-reverse">
      <path d="M 0 1.5 L 8 5 L 0 8.5 z" fill="#f59e0b" />
    </marker>
    <marker id="arrGreen" viewBox="0 0 10 10" refX="6" refY="5" markerWidth="6" markerHeight="6" orient="auto-start-reverse">
      <path d="M 0 1.5 L 8 5 L 0 8.5 z" fill="#10b981" />
    </marker>
    <marker id="arrRose" viewBox="0 0 10 10" refX="6" refY="5" markerWidth="6" markerHeight="6" orient="auto-start-reverse">
      <path d="M 0 1.5 L 8 5 L 0 8.5 z" fill="#f43f5e" />
    </marker>
    <marker id="arrPurple" viewBox="0 0 10 10" refX="6" refY="5" markerWidth="6" markerHeight="6" orient="auto-start-reverse">
      <path d="M 0 1.5 L 8 5 L 0 8.5 z" fill="#c084fc" />
    </marker>
  </defs>

  <style>
    .font-brand { font-family: -apple-system, BlinkMacSystemFont, 'Inter', 'Segoe UI', sans-serif; font-weight: 800; }
    .font-head { font-family: -apple-system, BlinkMacSystemFont, 'Inter', 'Segoe UI', sans-serif; font-weight: 700; }
    .font-sub { font-family: -apple-system, BlinkMacSystemFont, 'Inter', 'Segoe UI', sans-serif; font-weight: 500; }
    .font-mono { font-family: 'SF Mono', 'Fira Code', 'Consolas', monospace; }
  </style>

  <!-- Base Canvas -->
  <rect width="1200" height="860" rx="20" fill="url(#bgGrad)" stroke="#1e293b" stroke-width="1.5" />

  <!-- Subtle Blueprint Grid -->
  <g opacity="0.035" stroke="#ffffff" stroke-width="1">
    <line x1="0" y1="160" x2="1200" y2="160" />
    <line x1="0" y1="300" x2="1200" y2="300" />
    <line x1="0" y1="520" x2="1200" y2="520" />
    <line x1="0" y1="690" x2="1200" y2="690" />
    <line x1="250" y1="0" x2="250" y2="860" />
    <line x1="600" y1="0" x2="600" y2="860" />
    <line x1="950" y1="0" x2="950" y2="860" />
  </g>

  <!-- ================= TOP BRAND HEADER ================= -->
  <g transform="translate(50, 24)">
    <!-- Custom Vector Thermometer Logo Badge -->
    <rect x="0" y="0" width="38" height="38" rx="10" fill="#f97316" fill-opacity="0.15" stroke="#f97316" stroke-width="1.5" />
    <g transform="translate(11, 8)" stroke="#f97316" stroke-width="2" fill="none" stroke-linecap="round" stroke-linejoin="round">
      <path d="M 8 9.5 V 3 a 2.5 2.5 0 0 0 -5 0 v 6.5 a 4.5 4.5 0 1 0 5 0 Z" />
      <circle cx="5.5" cy="13.5" r="1.5" fill="#f97316" stroke="none" />
    </g>

    <!-- Header Titles -->
    <text x="52" y="21" class="font-brand" font-size="21" fill="#ffffff" letter-spacing="0.5">ThermalOS</text>
    <text x="180" y="21" class="font-sub" font-size="13" fill="#64748b">— System Architecture &amp; Autonomous Multi-Agent Pipeline</text>
    
    <!-- Real-Time Status Pill -->
    <rect x="940" y="4" width="160" height="28" rx="14" fill="#022c22" stroke="#059669" stroke-width="1" />
    <circle cx="956" cy="18" r="4" fill="#10b981" />
    <text x="968" y="22" class="font-mono" font-size="11" font-weight="bold" fill="#6ee7b7">SYSTEM ONLINE</text>
  </g>

  <!-- ================= 1. FORTYGUARD CLOUD PLATFORM ================= -->
  <g transform="translate(50, 78)" filter="url(#cardShadow)">
    <rect width="1100" height="98" rx="14" fill="url(#cloudCard)" stroke="#0284c7" stroke-width="1.5" />
    
    <!-- Cloud Icon SVG -->
    <g transform="translate(24, 18)" stroke="#38bdf8" stroke-width="1.75" fill="none" stroke-linecap="round" stroke-linejoin="round">
      <path d="M 17.5 19 H 9 a 5 5 0 0 1 -1 -9.9 A 7 7 0 0 1 21 8 a 5 5 0 0 1 4 4.9 A 4.5 4.5 0 0 1 21.5 22 H 17.5" />
    </g>
    <text x="60" y="30" class="font-head" font-size="13" fill="#38bdf8" letter-spacing="0.5">FORTYGUARD ENTERPRISE MICROCLIMATE PLATFORM</text>
    <text x="490" y="30" class="font-sub" font-size="11" fill="#94a3b8">Large Temperature Models (LTMs) • High-Resolution Street Radiometry</text>

    <!-- Endpoint 1 -->
    <g transform="translate(24, 46)">
      <rect width="510" height="40" rx="8" fill="#071527" stroke="#1e3a8a" stroke-width="1" />
      <rect x="12" y="10" width="46" height="20" rx="4" fill="#1d4ed8" />
      <text x="35" y="24" text-anchor="middle" class="font-mono" font-size="10" font-weight="bold" fill="#ffffff">POST</text>
      <text x="68" y="24" class="font-mono" font-size="12" font-weight="bold" fill="#38bdf8">/v1/heatmap</text>
      <text x="178" y="24" class="font-sub" font-size="11" fill="#94a3b8">60m–100m Radiometry (Ts, Ta, GHI, RH, Albedo)</text>
    </g>

    <!-- Endpoint 2 -->
    <g transform="translate(560, 46)">
      <rect width="516" height="40" rx="8" fill="#071527" stroke="#1e3a8a" stroke-width="1" />
      <rect x="12" y="10" width="38" height="20" rx="4" fill="#0284c7" />
      <text x="31" y="24" text-anchor="middle" class="font-mono" font-size="10" font-weight="bold" fill="#ffffff">GET</text>
      <text x="60" y="24" class="font-mono" font-size="12" font-weight="bold" fill="#38bdf8">/v1/quota</text>
      <text x="145" y="24" class="font-sub" font-size="11" fill="#94a3b8">Cloud Credit Usage &amp; Daily Allowance Telemetry</text>
    </g>
  </g>

  <!-- Connector (Cloud -> Ingestion Core) -->
  <path d="M 600 176 L 600 210" stroke="#38bdf8" stroke-width="2" stroke-dasharray="4,4" marker-end="url(#arrCyan)" />

  <!-- ================= 2. THERMALOS INGESTION & CACHE ================= -->
  <g transform="translate(150, 212)" filter="url(#cardShadow)">
    <rect width="900" height="78" rx="14" fill="url(#cardDark)" stroke="#6366f1" stroke-width="1.5" />
    
    <!-- Shield Icon SVG -->
    <g transform="translate(24, 16)" stroke="#818cf8" stroke-width="1.75" fill="none" stroke-linecap="round" stroke-linejoin="round">
      <path d="M 12 22 s 8 -4 8 -10 V 5 l -8 -3 l -8 3 v 7 c 0 6 8 10 8 10 z" />
    </g>
    <text x="56" y="28" class="font-head" font-size="13" fill="#818cf8">THERMALOS TELEMETRY CORE &amp; PERSISTENT CACHE</text>
    <text x="24" y="52" class="font-sub" font-size="12" fill="#cbd5e1">Client Engine: <tspan class="font-mono" fill="#c7d2fe">backend/fortyguard_client.py</tspan></text>
    <text x="24" y="68" class="font-sub" font-size="11" fill="#64748b">GeoJSON Polygon AOI &amp; Coordinates Resolver for US Metros</text>

    <!-- Cache Module Box -->
    <g transform="translate(550, 16)">
      <rect width="326" height="46" rx="8" fill="#151b36" stroke="#4f46e5" stroke-width="1" />
      
      <!-- Database Icon SVG -->
      <g transform="translate(14, 11)" stroke="#a5b4fc" stroke-width="1.5" fill="none" stroke-linecap="round" stroke-linejoin="round">
        <ellipse cx="10" cy="5" rx="8" ry="3" />
        <path d="M 2 5 v 7 c 0 1.66 3.58 3 8 3 s 8 -1.34 8 -3 V 5" />
        <path d="M 2 12 v 7 c 0 1.66 3.58 3 8 3 s 8 -1.34 8 -3 v -7" />
      </g>
      <text x="42" y="24" class="font-head" font-size="12" fill="#a5b4fc">1-Hour Disk Cache Engine</text>
      <text x="42" y="39" class="font-mono" font-size="10" fill="#818cf8">backend/cache/ (TTL: 3600s • Quota Guard)</text>
    </g>
  </g>

  <!-- Connectors to 3 Agents -->
  <path d="M 320 290 L 220 338" stroke="#f59e0b" stroke-width="2" marker-end="url(#arrAmber)" />
  <path d="M 600 290 L 600 338" stroke="#10b981" stroke-width="2" marker-end="url(#arrGreen)" />
  <path d="M 880 290 L 980 338" stroke="#f43f5e" stroke-width="2" marker-end="url(#arrRose)" />

  <!-- ================= 3. AUTONOMOUS TRI-AGENT SUITE ================= -->
  
  <!-- Agent 1: Compliance Auditor -->
  <g transform="translate(50, 345)" filter="url(#cardShadow)">
    <rect width="345" height="200" rx="14" fill="url(#agent1Card)" stroke="#d97706" stroke-width="1.5" />
    
    <!-- Card Header -->
    <rect x="0" y="0" width="345" height="40" rx="14" fill="#3b1b04" />
    
    <!-- FileCheck Icon SVG -->
    <g transform="translate(14, 10)" stroke="#fbbf24" stroke-width="1.75" fill="none" stroke-linecap="round" stroke-linejoin="round">
      <path d="M 14 2 H 6 a 2 2 0 0 0 -2 2 v 16 a 2 2 0 0 0 2 2 h 12 a 2 2 0 0 0 2 -2 V 8 z" />
      <polyline points="14 2 14 8 20 8" />
      <path d="M 9 15 l 2 2 l 4 -4" />
    </g>
    <text x="44" y="25" class="font-head" font-size="13" fill="#fbbf24">AGENT 1: COMPLIANCE AUDITOR</text>
    <text x="325" y="25" text-anchor="end" class="font-mono" font-size="10" font-weight="bold" fill="#fde68a">RAG</text>

    <!-- Content Items -->
    <text x="16" y="66" class="font-sub" font-size="12" fill="#fed7aa">• <tspan font-weight="bold">Sol-Air Physics Flux:</tspan> T_sol = Ta + (α·GHI)/ho</text>
    <text x="16" y="90" class="font-sub" font-size="12" fill="#fed7aa">• <tspan font-weight="bold">ChromaDB Vector Store:</tspan> 256-dim embeddings</text>
    <text x="16" y="114" class="font-sub" font-size="12" fill="#fed7aa">• <tspan font-weight="bold">Standards:</tspan> ASHRAE 55-2023 &amp; IECC 2024</text>
    <text x="16" y="138" class="font-sub" font-size="12" fill="#fed7aa">• <tspan font-weight="bold">Scope:</tspan> Envelope insulation derating audit</text>

    <!-- Result Pill -->
    <rect x="16" y="152" width="313" height="34" rx="6" fill="#241103" stroke="#b45309" stroke-width="1" />
    <text x="172" y="173" text-anchor="middle" class="font-mono" font-size="11" font-weight="bold" fill="#fde68a">
      FLAG: -35% Insulation Derate Risk
    </text>
  </g>

  <!-- Agent 2: Pre-Cool Controller -->
  <g transform="translate(427, 345)" filter="url(#cardShadow)">
    <rect width="345" height="200" rx="14" fill="url(#agent2Card)" stroke="#059669" stroke-width="1.5" />
    
    <!-- Card Header -->
    <rect x="0" y="0" width="345" height="40" rx="14" fill="#043a2c" />
    
    <!-- Zap Icon SVG -->
    <g transform="translate(14, 10)" stroke="#34d399" stroke-width="1.75" fill="none" stroke-linecap="round" stroke-linejoin="round">
      <polygon points="13 2 3 14 12 14 11 22 21 10 12 10 13 2" />
    </g>
    <text x="44" y="25" class="font-head" font-size="13" fill="#34d399">AGENT 2: PRE-COOL CONTROLLER</text>
    <text x="325" y="25" text-anchor="end" class="font-mono" font-size="10" font-weight="bold" fill="#a7f3d0">MPC</text>

    <!-- Content Items -->
    <text x="16" y="66" class="font-sub" font-size="12" fill="#a7f3d0">• <tspan font-weight="bold">Thermal Inertia Lag:</tspan> τ = 2.0h–3.5h structural</text>
    <text x="16" y="90" class="font-sub" font-size="12" fill="#a7f3d0">• <tspan font-weight="bold">MPC Load Shifting:</tspan> Pre-cool window 03–07h</text>
    <text x="16" y="114" class="font-sub" font-size="12" fill="#a7f3d0">• <tspan font-weight="bold">Peak Zenith Shaving:</tspan> Defend 13–17h grid stress</text>
    <text x="16" y="138" class="font-sub" font-size="12" fill="#a7f3d0">• <tspan font-weight="bold">Target:</tspan> Municipal chiller plant electric demand</text>

    <!-- Result Pill -->
    <rect x="16" y="152" width="313" height="34" rx="6" fill="#021d15" stroke="#047857" stroke-width="1" />
    <text x="172" y="173" text-anchor="middle" class="font-mono" font-size="11" font-weight="bold" fill="#6ee7b7">
      REDUCTION: 450–780 kW Shaved (35%)
    </text>
  </g>

  <!-- Agent 3: Civic Heat Dispatcher -->
  <g transform="translate(805, 345)" filter="url(#cardShadow)">
    <rect width="345" height="200" rx="14" fill="url(#agent3Card)" stroke="#e11d48" stroke-width="1.5" />
    
    <!-- Card Header -->
    <rect x="0" y="0" width="345" height="40" rx="14" fill="#3f0514" />
    
    <!-- AlertTriangle Icon SVG -->
    <g transform="translate(14, 10)" stroke="#fb7185" stroke-width="1.75" fill="none" stroke-linecap="round" stroke-linejoin="round">
      <path d="M 10.29 3.86 L 1.82 18 a 2 2 0 0 0 1.71 3 h 16.94 a 2 2 0 0 0 1.71 -3 L 13.71 3.86 a 2 2 0 0 0 -3.42 0 z" />
      <line x1="12" y1="9" x2="12" y2="13" />
      <line x1="12" y1="17" x2="12.01" y2="17" />
    </g>
    <text x="44" y="25" class="font-head" font-size="13" fill="#fb7185">AGENT 3: CIVIC DISPATCHER</text>
    <text x="325" y="25" text-anchor="end" class="font-mono" font-size="10" font-weight="bold" fill="#fecdd3">n8n</text>

    <!-- Content Items -->
    <text x="16" y="66" class="font-sub" font-size="12" fill="#fecdd3">• <tspan font-weight="bold">Thermodynamic WBGT:</tspan> Liljegren Index formula</text>
    <text x="16" y="90" class="font-sub" font-size="12" fill="#fecdd3">• <tspan font-weight="bold">Automated Webhooks:</tspan> JSON payload dispatch</text>
    <text x="16" y="114" class="font-sub" font-size="12" fill="#fecdd3">• <tspan font-weight="bold">OSHA / ACGIH Limits:</tspan> 15 min/hr outdoor work</text>
    <text x="16" y="138" class="font-sub" font-size="12" fill="#fecdd3">• <tspan font-weight="bold">Civic Response:</tspan> Misting hubs &amp; cooling shelters</text>

    <!-- Result Pill -->
    <rect x="16" y="152" width="313" height="34" rx="6" fill="#20040b" stroke="#be123c" stroke-width="1" />
    <text x="172" y="173" text-anchor="middle" class="font-mono" font-size="11" font-weight="bold" fill="#fda4af">
      DISPATCH: Automated Emergency Alerts
    </text>
  </g>

  <!-- Connectors to Synthesis -->
  <path d="M 220 545 L 480 578" stroke="#f59e0b" stroke-width="1.5" marker-end="url(#arrAmber)" />
  <path d="M 600 545 L 600 578" stroke="#10b981" stroke-width="1.5" marker-end="url(#arrGreen)" />
  <path d="M 980 545 L 720 578" stroke="#f43f5e" stroke-width="1.5" marker-end="url(#arrRose)" />

  <!-- ================= 4. EXECUTIVE CONSENSUS SYNTHESIS ================= -->
  <g transform="translate(240, 580)" filter="url(#cardShadow)">
    <rect width="720" height="52" rx="12" fill="url(#synthesisGrad)" stroke="#c084fc" stroke-width="1.5" />
    
    <!-- Landmark Icon SVG -->
    <g transform="translate(20, 14)" stroke="#f3e8ff" stroke-width="1.75" fill="none" stroke-linecap="round" stroke-linejoin="round">
      <line x1="3" y1="21" x2="21" y2="21" />
      <line x1="3" y1="10" x2="21" y2="10" />
      <polyline points="12 3 2 10 22 10" />
      <line x1="6" y1="10" x2="6" y2="21" />
      <line x1="10" y1="10" x2="10" y2="21" />
      <line x1="14" y1="10" x2="14" y2="21" />
      <line x1="18" y1="10" x2="18" y2="21" />
    </g>
    
    <text x="56" y="32" class="font-head" font-size="13" fill="#ffffff" letter-spacing="0.5">
      EXECUTIVE MUNICIPAL CONSENSUS SYNTHESIS
    </text>
    <text x="695" y="32" text-anchor="end" class="font-sub" font-size="11" fill="#e9d5ff">
      Unified Strategic Directive for City Leadership
    </text>
  </g>

  <!-- Connector (Synthesis -> UI Suite) -->
  <path d="M 600 632 L 600 666" stroke="#c084fc" stroke-width="2" marker-end="url(#arrPurple)" />

  <!-- ================= 5. EXECUTIVE COMMAND DECK & VISUALIZATIONS ================= -->
  <g transform="translate(50, 670)" filter="url(#cardShadow)">
    <rect width="1100" height="155" rx="14" fill="url(#cardDark)" stroke="#334155" stroke-width="1.5" />
    
    <!-- Monitor Icon SVG -->
    <g transform="translate(24, 16)" stroke="#38bdf8" stroke-width="1.75" fill="none" stroke-linecap="round" stroke-linejoin="round">
      <rect x="2" y="3" width="20" height="14" rx="2" />
      <line x1="8" y1="21" x2="16" y2="21" />
      <line x1="12" y1="17" x2="12" y2="21" />
    </g>
    <text x="56" y="30" class="font-head" font-size="13" fill="#38bdf8" letter-spacing="0.5">
      EXECUTIVE COMMAND DECK &amp; SPATIAL ANALYTICS SUITE
    </text>

    <!-- Component 1: GIS Heatmap -->
    <g transform="translate(24, 46)">
      <rect width="330" height="92" rx="10" fill="#070c16" stroke="#1e293b" stroke-width="1" />
      
      <!-- Layers Icon SVG -->
      <g transform="translate(14, 12)" stroke="#38bdf8" stroke-width="1.5" fill="none" stroke-linecap="round" stroke-linejoin="round">
        <polygon points="12 2 2 7 12 12 22 7 12 2" />
        <polyline points="2 17 12 22 22 17" />
        <polyline points="2 12 12 17 22 12" />
      </g>
      <text x="44" y="26" class="font-head" font-size="12" fill="#38bdf8">Leaflet Spatial GIS Heatmap</text>
      <text x="16" y="48" class="font-sub" font-size="11" fill="#cbd5e1">• 60m / 80m / 100m Microclimate Tiles</text>
      <text x="16" y="66" class="font-sub" font-size="11" fill="#94a3b8">• Esri Satellite &amp; Dark Carto Basemaps</text>
      <text x="16" y="83" class="font-mono" font-size="10" fill="#64748b">GeoJSON Vector Grid Overlay</text>
    </g>

    <!-- Component 2: Diurnal Timeline -->
    <g transform="translate(385, 46)">
      <rect width="330" height="92" rx="10" fill="#070c16" stroke="#1e293b" stroke-width="1" />
      
      <!-- Clock Icon SVG -->
      <g transform="translate(14, 12)" stroke="#38bdf8" stroke-width="1.5" fill="none" stroke-linecap="round" stroke-linejoin="round">
        <circle cx="12" cy="12" r="10" />
        <polyline points="12 6 12 12 16 14" />
      </g>
      <text x="44" y="26" class="font-head" font-size="12" fill="#38bdf8">24H Diurnal Forecaster</text>
      <text x="16" y="48" class="font-sub" font-size="11" fill="#cbd5e1">• 00:00–12:00 Historic Baseline</text>
      <text x="16" y="66" class="font-sub" font-size="11" fill="#cbd5e1">• 12:00–24:00 AI Predictive Horizon</text>
      <text x="16" y="83" class="font-mono" font-size="10" fill="#64748b">Pre-Cool (03–07h) &amp; Peak (13–17h)</text>
    </g>

    <!-- Component 3: Phaser Office -->
    <g transform="translate(746, 46)">
      <rect width="330" height="92" rx="10" fill="#070c16" stroke="#1e293b" stroke-width="1" />
      
      <!-- Activity Icon SVG -->
      <g transform="translate(14, 12)" stroke="#38bdf8" stroke-width="1.5" fill="none" stroke-linecap="round" stroke-linejoin="round">
        <polyline points="22 12 18 12 15 21 9 3 6 12 2 12" />
      </g>
      <text x="44" y="26" class="font-head" font-size="12" fill="#38bdf8">Phaser 3 Office Engine</text>
      <text x="16" y="48" class="font-sub" font-size="11" fill="#cbd5e1">• Real-Time 2D Agent Simulation</text>
      <text x="16" y="66" class="font-sub" font-size="11" fill="#94a3b8">• Security Doors &amp; Badge Laser Scans</text>
      <text x="16" y="83" class="font-mono" font-size="10" fill="#64748b">Synchronized Telemetry Canvas</text>
    </g>
  </g>

</svg>
